<?xml version="1.0" standalone="no"?><!DOCTYPE svg PUBLIC "-//W3C//DTD SVG 1.1//EN" "http://www.w3.org/Graphics/SVG/1.1/DTD/svg11.dtd"><svg t="1778586627056" class="icon" viewBox="0 0 1417 1024" version="1.1" xmlns="http://www.w3.org/2000/svg" p-id="7103" xmlns:xlink="http://www.w3.org/1999/xlink" width="276.7578125" height="200"><path d="M284.388431 10.24l896.393846 896.393846a33.398154 33.398154 0 0 1-47.261539 47.104L237.126892 57.344a33.398154 33.398154 0 1 1 47.261539-47.182769z m24.812307 166.360615l49.467077 49.467077c-38.596923 19.298462-75.854769 41.275077-111.300923 65.929846a810.535385 810.535385 0 0 0-90.978461 73.491693l-13.784616 13.233231c-4.489846 4.332308-8.664615 8.664615-12.839384 12.996923l-11.815385 12.603077c-10.082462 11.106462-19.692308 22.764308-28.593231 34.816l-7.08923 10.397538c-9.767385 14.808615-15.202462 27.017846-15.517539 35.052308-0.630154 15.044923 22.685538 50.254769 62.621539 91.136l12.445538 12.524307c27.963077 27.254154 62.700308 56.398769 102.084923 83.495385C380.959508 766.030769 545.5872 823.926154 708.954585 823.926154c73.412923 0 146.668308-10.712615 217.088-30.483692l53.405538 53.563076A876.071385 876.071385 0 0 1 708.954585 890.486154c-250.722462 0-472.851692-123.352615-599.04-240.403692l-12.918154-12.288a606.444308 606.444308 0 0 1-34.343385-36.233847l-9.924923-11.815384a457.728 457.728 0 0 1-4.647385-5.828923L39.416123 572.652308c-26.308923-35.761231-40.251077-67.584-39.384615-90.584616 0.866462-21.110154 13.548308-49.545846 36.233846-81.683692l8.428308-11.421538 9.216-11.815385 4.962461-5.907692 10.397539-12.130462 5.513846-6.065231 11.657846-12.366769 12.288-12.524308 13.154461-12.603077 13.784616-12.603076c11.815385-10.476308 24.418462-21.031385 37.572923-31.507693l16.226461-12.524307a953.895385 953.895385 0 0 1 129.732923-82.235077zM708.954585 73.255385c391.483077 0 708.923077 278.370462 708.923077 408.654769 0 41.432615-32.137846 97.910154-88.536616 155.569231l-12.524308 12.366769-6.459076 6.222769-13.548308 12.366769a533.819077 533.819077 0 0 1-14.257231 12.36677l-14.966154 12.288c-5.041231 4.017231-10.24 8.113231-15.596307 12.130461l-16.226462 12.051692c-38.833231 28.041846-79.872 52.932923-122.643692 74.436923l-49.860923-49.782153c38.124308-18.116923 74.830769-38.912 109.883077-62.306462 56.871385-38.124308 104.526769-80.423385 137.058461-120.832 27.411692-33.870769 40.96-62.621538 40.96-76.878769 0-14.257231-13.548308-43.008-40.96-76.957539-32.531692-40.329846-80.187077-82.707692-137.058461-120.832-133.828923-89.481846-298.535385-144.147692-464.187077-144.147692-72.625231 0-145.092923 11.342769-215.197539 32.374154l-52.932923-52.932923A823.926154 823.926154 0 0 1 708.954585 73.255385zM516.521354 383.921231l50.806154 50.806154a149.188923 149.188923 0 0 0 188.809846 188.809846l50.884923 50.884923a215.906462 215.906462 0 0 1-290.500923-290.579692zM708.954585 266.003692a215.906462 215.906462 0 0 1 192.43323 314.052923l-50.884923-50.806153A149.188923 149.188923 0 0 0 661.693046 340.283077l-50.884923-50.806154a215.04 215.04 0 0 1 98.067692-23.552z" p-id="7104"></path></svg>